<svg xmlns="http://www.w3.org/2000/svg"><symbol id="arrow-left" viewbox="0 0 20 30">
    <path d="M14.56 29.84L.183 15.463a.65.65 0 0 1 0-.903L14.56.183a.65.65 0 0 1 .903 0l4.376 4.375a.65.65 0 0 1 0 .903l-9.586 9.55 9.586 9.55a.65.65 0 0 1 0 .903l-4.376 4.375c-.139.105-.278.174-.451.174-.174.001-.313-.067-.452-.173z"/>
</symbol><symbol id="arrow-right" viewbox="0 0 20 30">
    <title>
        Shape
    </title>
    <path d="M5.462 29.84l14.377-14.377a.65.65 0 0 0 0-.903L5.462.183a.65.65 0 0 0-.903 0L.183 4.558a.65.65 0 0 0 0 .903l9.586 9.55-9.586 9.55a.65.65 0 0 0 0 .903l4.376 4.375c.139.105.278.174.451.174.174.001.313-.067.452-.173z" fill-rule="evenodd"/>
</symbol><symbol id="logo" viewbox="0 0 96 96">
    <title>
        icons
    </title>
    <path d="M53.904 48.749l15.902 15.877c3.514 3.508 12.443 3.679 19.61-2.634 7.07-6.527 7.995-17.357 2.136-24.986-8.46-10.6-26.179-4.159-27.396 0l5.19 5.247c6.174-5.812 10.436-1.301 10.436-1.301 2.136 1.504 1.954 6.398-.363 8.83-4.978 5.332-12.112-2.9-12.112-2.9l-8.652-8.639-.013.014-10.219-10.155s-8.245-7.123-2.905-12.093c2.435-2.314 7.338-2.495 8.844-.362 0 0 4.55 4.265-1.25 10.376l5.223 5.172c4.165-1.216 10.616-18.907 0-27.353-7.641-5.85-18.488-4.926-25.025 2.133-6.313 7.155-6.142 16.08-2.628 19.578l15.346 15.33-5.277 5.27L26.036 31.46c-3.524-3.508-12.763-3.37-19.93 2.933C-.698 40.387-2.3 51.925 3.778 59.539c8.459 10.6 26.103 4.266 27.32.107l-5.233-5.204c-6.12 5.79-10.413 1.269-10.413 1.269-2.137-1.504-1.656-6.676.662-9.14 4.977-5.331 12.41 2.603 12.41 2.603l10.788 10.77.027-.026 7.45 7.438s7.946 7.422 2.606 12.39c-2.467 2.315-7.647 2.795-9.153.662 0 0-4.529-4.265 1.26-10.323L36.29 64.86c-4.166 1.216-10.51 18.833.107 27.278 7.626 6.047 19.225 4.447 25.185-2.356 6.312-7.156 6.462-16.38 2.948-19.888L48.628 54.017l5.276-5.268z" fill-rule="evenodd"/>
</symbol></svg>